<svg width="30.000000" height="30.000000" viewBox="0 0 30 30" fill="none" xmlns="http://www.w3.org/2000/svg" xmlns:xlink="http://www.w3.org/1999/xlink">
	<desc>
			Created with Pixso.
	</desc>
	<defs>
		<clipPath id="clip44_43">
			<rect width="30.000000" height="30.000000" fill="white" fill-opacity="0"/>
		</clipPath>
	</defs>
	<rect width="30.000000" height="30.000000" fill="#FFFFFF" fill-opacity="0"/>
	<g clip-path="url(#clip44_43)">
		<path d="M14.99 0C8.36 0 2.96 5.39 2.96 12.02C2.96 12.77 3.03 13.54 3.18 14.28C3.18 14.32 3.21 14.45 3.26 14.68C3.44 15.49 3.71 16.29 4.06 17.05C5.36 20.1 8.21 24.79 14.46 29.81C14.62 29.93 14.81 30 15 30C15.18 30 15.37 29.93 15.53 29.81C21.78 24.79 24.63 20.1 25.93 17.05C26.28 16.29 26.55 15.5 26.73 14.68C26.78 14.45 26.81 14.32 26.81 14.28C26.95 13.54 27.03 12.77 27.03 12.02C27.01 5.39 21.62 0 14.99 0ZM25.13 13.98C25.13 14 25.12 14.01 25.12 14.02C25.11 14.05 25.1 14.15 25.06 14.29C25.06 14.3 25.06 14.3 25.06 14.3C24.91 15.01 24.67 15.69 24.37 16.35C24.36 16.36 24.36 16.37 24.35 16.38C23.18 19.16 20.6 23.42 14.99 28.05C9.38 23.42 6.8 19.16 5.62 16.38C5.62 16.37 5.62 16.36 5.61 16.35C5.31 15.7 5.08 15.01 4.91 14.3C4.91 14.3 4.91 14.3 4.91 14.29C4.88 14.15 4.86 14.05 4.86 14.02C4.86 14.01 4.85 14 4.85 13.98C4.72 13.33 4.66 12.67 4.66 12.01C4.66 6.32 9.3 1.69 14.99 1.69C20.68 1.69 25.32 6.32 25.32 12.01C25.32 12.68 25.25 13.34 25.13 13.98Z" fill="#000000" fill-opacity="1.000000" fill-rule="nonzero"/>
		<path d="M14.99 4.52C10.78 4.52 7.35 7.94 7.35 12.15C7.35 16.36 10.78 19.79 14.99 19.79C19.2 19.79 22.62 16.36 22.62 12.15C22.62 7.94 19.2 4.52 14.99 4.52ZM14.99 18.09C11.71 18.09 9.05 15.42 9.05 12.15C9.05 8.88 11.72 6.22 14.99 6.22C18.26 6.22 20.93 8.88 20.93 12.15C20.93 15.42 18.27 18.09 14.99 18.09Z" fill="#000000" fill-opacity="1.000000" fill-rule="nonzero"/>
	</g>
</svg>
