<svg width="80.000000" height="76.000000" viewBox="0 0 80 76" fill="none" xmlns="http://www.w3.org/2000/svg" xmlns:xlink="http://www.w3.org/1999/xlink">
	<desc>
			Created with Pixso.
	</desc>
	<defs/>
	<path d="M57.25 69.98Q57.86 70.2 58.54 70.2Q59.2 70.2 59.79 69.99Q60.16 69.86 60.5 69.65Q60.93 69.38 61.28 69.03Q61.65 68.66 61.92 68.19Q62.11 67.86 62.23 67.51Q62.45 66.88 62.45 66.18L62.43 59.83Q62.43 59.09 62.19 58.43Q62.07 58.12 61.9 57.84Q61.6 57.33 61.19 56.93Q60.88 56.63 60.5 56.4Q60.18 56.21 59.85 56.08Q59.24 55.85 58.54 55.85Q57.99 55.85 57.48 56Q57.01 56.14 56.57 56.4Q56.13 56.66 55.78 57.02Q55.41 57.38 55.14 57.84Q54.98 58.11 54.87 58.41Q54.62 59.07 54.62 59.83L54.6 66.18Q54.6 66.87 54.81 67.49Q54.94 67.85 55.13 68.19Q55.43 68.69 55.83 69.08Q56.16 69.4 56.56 69.65Q56.9 69.85 57.25 69.98ZM73.69 69.98Q74.3 70.2 74.98 70.2Q75.64 70.2 76.23 69.99Q76.6 69.86 76.94 69.65Q77.37 69.38 77.72 69.03Q78.09 68.66 78.36 68.19Q78.55 67.86 78.67 67.51Q78.89 66.88 78.89 66.18L78.87 59.83Q78.87 59.09 78.63 58.43Q78.51 58.12 78.34 57.84Q78.04 57.33 77.63 56.93Q77.32 56.63 76.94 56.4Q76.62 56.21 76.29 56.08Q75.68 55.85 74.98 55.85Q74.43 55.85 73.92 56Q73.45 56.14 73.01 56.4Q72.57 56.66 72.22 57.02Q71.85 57.38 71.58 57.84Q71.42 58.11 71.31 58.41Q71.06 59.07 71.06 59.83L71.04 66.18Q71.04 66.87 71.25 67.49Q71.38 67.85 71.57 68.19Q71.87 68.69 72.27 69.08Q72.6 69.4 73 69.65Q73.33 69.85 73.69 69.98ZM0.82 69.97Q0.84 70 0.89 70L4.48 69.98Q5.39 69.96 6.15 69.62Q6.38 69.52 6.59 69.39Q7.05 69.12 7.42 68.76Q7.81 68.37 8.1 67.89Q8.28 67.57 8.41 67.22Q8.66 66.54 8.66 65.78L8.66 60.03Q8.66 59.34 8.44 58.72Q8.31 58.36 8.12 58.03Q7.83 57.55 7.44 57.17Q7.1 56.83 6.66 56.58Q6.34 56.38 5.99 56.26Q5.36 56.04 4.65 56.05L0.91 56.07Q0.88 56.07 0.86 56.09Q0.83 56.11 0.83 56.16L0.8 69.9Q0.8 69.95 0.82 69.97ZM10.26 69.98Q10.28 70 10.31 70L12.57 70Q12.61 70 12.62 69.98Q12.65 69.96 12.65 69.9L12.68 64.01L14 64.01Q14.37 64.01 14.68 64.15Q14.99 64.28 15.24 64.55Q15.51 64.83 15.64 65.16Q15.75 65.46 15.75 65.8L15.75 69.94Q15.75 69.96 15.76 69.97Q15.78 70 15.84 70L18.1 70Q18.15 70 18.17 69.97Q18.19 69.95 18.19 69.9L18.18 65.8Q18.18 64.97 17.9 64.26Q17.63 63.56 17.1 62.97Q17.34 62.77 17.63 62.36Q17.94 61.95 18.16 61.37Q18.38 60.78 18.38 60.03Q18.38 59.21 18.08 58.5Q17.97 58.26 17.83 58.03Q17.59 57.62 17.27 57.29Q16.88 56.89 16.38 56.61Q16.01 56.39 15.61 56.26Q15.03 56.07 14.4 56.07L10.35 56.07Q10.32 56.07 10.3 56.09Q10.27 56.11 10.27 56.16L10.24 69.9Q10.24 69.96 10.26 69.98ZM19.9 69.97Q19.92 70 19.97 70L22.23 70Q22.27 70 22.29 69.98Q22.32 69.95 22.32 69.9L22.29 56.16Q22.29 56.11 22.27 56.09Q22.25 56.07 22.21 56.07L19.97 56.07Q19.94 56.07 19.92 56.09Q19.9 56.11 19.9 56.16L19.88 69.9Q19.88 69.95 19.9 69.97ZM26.26 69.98Q26.28 70 26.32 70L28.73 70Q28.77 70 28.79 69.98Q28.82 69.96 28.84 69.9L31.56 56.16Q31.56 56.12 31.55 56.1Q31.53 56.07 31.47 56.07L29.24 56.07Q29.2 56.07 29.17 56.09Q29.14 56.11 29.13 56.16L27.53 65.32L25.9 56.16Q25.88 56.11 25.85 56.09Q25.83 56.07 25.79 56.07L23.53 56.07Q23.48 56.07 23.46 56.1Q23.45 56.12 23.46 56.16L26.21 69.9Q26.23 69.96 26.26 69.98ZM32.76 69.98Q32.78 70 32.81 70L39.27 70Q39.32 70 39.34 69.97Q39.36 69.95 39.36 69.92L39.36 67.64Q39.36 67.57 39.33 67.55Q39.31 67.53 39.27 67.53L35.15 67.53L35.15 64.03L39.27 64.03Q39.32 64.03 39.34 64.01Q39.36 63.99 39.36 63.96L39.34 61.69Q39.34 61.66 39.32 61.64Q39.3 61.62 39.25 61.62L35.15 61.62L35.15 58.5L39.25 58.5Q39.3 58.5 39.32 58.48Q39.34 58.45 39.34 58.41L39.34 56.18Q39.34 56.11 39.31 56.09Q39.29 56.07 39.25 56.07L32.83 56.07Q32.8 56.07 32.78 56.09Q32.76 56.11 32.76 56.16L32.74 69.9Q32.74 69.96 32.76 69.98ZM44.12 69.98Q44.14 70 44.17 70L46.43 70Q46.47 70 46.48 69.98Q46.51 69.96 46.51 69.9L46.54 59.7L48.62 62.73L50.72 59.7L50.74 69.9Q50.74 69.96 50.77 69.98Q50.78 70 50.81 70L53.08 70Q53.11 70 53.12 69.98Q53.15 69.96 53.15 69.9L53.11 56.16Q53.11 56.11 53.09 56.09Q53.07 56.07 53.04 56.07L50.58 56.07Q50.56 56.07 50.55 56.08Q50.49 56.09 50.43 56.16L48.62 58.79L46.8 56.16Q46.75 56.1 46.7 56.08Q46.68 56.07 46.65 56.07L44.21 56.07Q44.18 56.07 44.16 56.09Q44.13 56.11 44.13 56.16L44.1 69.9Q44.1 69.96 44.12 69.98ZM65.66 69.98Q65.68 70 65.71 70L67.97 70Q68.01 70 68.03 69.98Q68.06 69.95 68.06 69.9L68.04 58.5L70.65 58.5Q70.69 58.5 70.71 58.48Q70.74 58.46 70.74 58.39L70.74 56.16Q70.74 56.12 70.72 56.1Q70.7 56.07 70.63 56.07L63.04 56.07Q63 56.07 62.97 56.09Q62.95 56.12 62.95 56.16L62.93 58.39Q62.93 58.44 62.96 58.47Q62.99 58.5 63.04 58.5L65.63 58.5L65.63 69.9Q65.63 69.96 65.66 69.98ZM58.92 67.72Q58.74 67.77 58.54 67.77Q58.27 67.77 58.03 67.68Q57.72 67.57 57.47 67.3Q57.27 67.09 57.16 66.84Q57.03 66.54 57.03 66.18L57.03 59.83Q57.03 59.4 57.21 59.07Q57.31 58.87 57.47 58.71Q57.71 58.47 57.99 58.36Q58.25 58.26 58.54 58.26Q58.88 58.26 59.17 58.39Q59.4 58.51 59.6 58.72Q59.76 58.89 59.86 59.1Q60.02 59.43 60.02 59.83L60.04 66.18Q60.04 66.4 59.98 66.61Q59.87 66.98 59.58 67.29Q59.28 67.61 58.92 67.72ZM75.36 67.72Q75.18 67.77 74.98 67.77Q74.71 67.77 74.47 67.68Q74.16 67.57 73.91 67.3Q73.71 67.09 73.6 66.84Q73.47 66.54 73.47 66.18L73.47 59.83Q73.47 59.4 73.65 59.07Q73.75 58.87 73.91 58.71Q74.15 58.47 74.43 58.36Q74.69 58.26 74.98 58.26Q75.32 58.26 75.61 58.39Q75.84 58.51 76.04 58.72Q76.2 58.89 76.3 59.1Q76.46 59.43 76.46 59.83L76.48 66.18Q76.48 66.4 76.42 66.61Q76.31 66.98 76.02 67.29Q75.72 67.61 75.36 67.72ZM4.48 67.53L3.24 67.53L3.26 58.48L4.65 58.46Q4.94 58.45 5.19 58.54Q5.5 58.65 5.76 58.91Q6.03 59.17 6.15 59.49Q6.24 59.74 6.24 60.01L6.24 65.78Q6.24 66.11 6.12 66.4Q6 66.74 5.72 67.02Q5.48 67.26 5.19 67.39Q4.87 67.53 4.48 67.53ZM14.4 61.62L12.68 61.62L12.68 58.48L14.4 58.48Q14.69 58.48 14.94 58.57Q15.25 58.69 15.5 58.94Q15.76 59.18 15.87 59.49Q15.97 59.74 15.97 60.03Q15.97 60.35 15.86 60.62Q15.74 60.92 15.49 61.16Q15.2 61.44 14.85 61.55Q14.63 61.62 14.4 61.62Z" fill="#2F3035" fill-opacity="1.000000" fill-rule="evenodd"/>
	<path d="M59.04 7.95C58.34 7.25 57.23 7.14 56.41 7.7C53.31 9.82 37.77 20.43 36.1 22.1C33.68 24.53 33.68 28.47 36.1 30.89C37.31 32.1 38.9 32.7 40.5 32.7C42.09 32.7 43.68 32.1 44.89 30.89C46.56 29.22 57.17 13.68 59.29 10.58C59.85 9.76 59.74 8.65 59.04 7.95ZM41.96 27.96C41.15 28.77 39.84 28.77 39.03 27.96C38.22 27.15 38.22 25.84 39.03 25.03C39.68 24.39 44.09 21.24 49.52 17.47C45.75 22.9 42.6 27.31 41.96 27.96Z" fill="#2F3035" fill-opacity="1.000000" fill-rule="nonzero"/>
	<path d="M23.54 36.12L20.99 37.37C19.12 34.03 18.14 30.31 18.14 26.5C18.14 23.7 18.65 21.03 19.59 18.56L22.52 19.96C22.81 20.1 23.11 20.17 23.41 20.17C24.18 20.17 24.93 19.73 25.28 18.99C25.78 17.96 25.34 16.72 24.31 16.23L21.42 14.84C25.01 8.98 31.23 4.89 38.42 4.23L38.42 7.34C38.42 8.49 39.35 9.41 40.5 9.41C41.64 9.41 42.57 8.49 42.57 7.34L42.57 4.23C45.03 4.45 47.42 5.08 49.68 6.1C50.73 6.57 51.95 6.11 52.42 5.07C52.89 4.03 52.43 2.8 51.39 2.33C47.95 0.78 44.29 0 40.5 0C33.42 0 26.76 2.75 21.76 7.76C16.75 12.76 14 19.42 14 26.5C14 31.73 15.55 36.81 18.48 41.21C18.88 41.8 19.53 42.13 20.21 42.13C20.51 42.13 20.82 42.06 21.11 41.92L25.36 39.85C26.39 39.34 26.81 38.11 26.31 37.08C25.81 36.05 24.57 35.62 23.54 36.12Z" fill="#2F3035" fill-opacity="1.000000" fill-rule="nonzero"/>
	<path d="M64.66 15.6C64.19 14.56 62.96 14.1 61.92 14.57C60.88 15.04 60.41 16.26 60.89 17.31C62.19 20.2 62.85 23.29 62.85 26.5C62.85 30.31 61.87 34.05 60 37.39L57.33 36.12C56.29 35.62 55.06 36.06 54.57 37.1C54.08 38.13 54.51 39.36 55.55 39.85L59.89 41.92C60.18 42.06 60.48 42.13 60.78 42.13C61.46 42.13 62.11 41.8 62.51 41.21C65.44 36.81 67 31.73 67 26.5C67 22.7 66.21 19.04 64.66 15.6Z" fill="#2F3035" fill-opacity="1.000000" fill-rule="nonzero"/>
</svg>
